<svg aria-labelledby="neutral-title" xmlns="http://www.w3.org/2000/svg" viewBox="0 0 24 24" fill="#000000">
<title id="neutral-title">Neutral</title>
    <g id="Icon">
        <path id="Vector" d="M19.5 3H5.5C4.4 3 3.5 3.9 3.5 5V19C3.5 20.1 4.4 21 5.5 21H19.5C20.6 21 21.5 20.1 21.5 19V5C21.5 3.9 20.6 3 19.5 3ZM12.51 18C11.81 18 11.25 17.44 11.25 16.74C11.25 16.03 11.81 15.49 12.51 15.49C13.22 15.49 13.76 16.03 13.76 16.74C13.75 17.43 13.22 18 12.51 18ZM15.52 10.6C14.76 11.71 14.04 12.06 13.65 12.77C13.55 12.95 13.49 13.09 13.46 13.4C13.41 13.85 13.01 14.18 12.56 14.18H12.5C11.98 14.18 11.57 13.74 11.62 13.22C11.65 12.88 11.73 12.53 11.92 12.19C12.41 11.32 13.34 10.8 13.88 10.03C14.45 9.22 14.13 7.7 12.51 7.7C11.8 7.7 11.33 8.06 11.04 8.49C10.79 8.85 10.35 9.02 9.94 8.85C9.41 8.64 9.22 8 9.54 7.54C10.15 6.65 11.17 6 12.49 6C13.97 6 14.98 6.67 15.5 7.52C15.94 8.24 16.2 9.59 15.52 10.6Z" />
    </g>
</svg>
