<?xml version="1.0" encoding="utf-8"?>
<!-- Generator: Adobe Illustrator 25.2.0, SVG Export Plug-In . SVG Version: 6.00 Build 0)  -->
<svg version="1.1" id="Layer_2" xmlns="http://www.w3.org/2000/svg" xmlns:xlink="http://www.w3.org/1999/xlink" x="0px" y="0px"
	 viewBox="0 0 256 256" style="enable-background:new 0 0 256 256;" xml:space="preserve">
<style type="text/css">
	.st0{fill:#23508E;}
	.st1{enable-background:new    ;}
	.st2{fill:#FFFFFF;}
</style>
<rect id="Rectangle_2" class="st0" width="256" height="256"/>
<g class="st1">
	<path class="st2" d="M128.9,191.1c0,14.3-4.3,25.2-12.8,32.8c-8.5,7.6-20.9,11.4-37,11.4H53.3v-86.6h28.6
		c14.9,0,26.4,3.7,34.6,11.2C124.8,167.3,128.9,177.7,128.9,191.1z M108.8,191.6c0-18.6-8.6-27.9-25.9-27.9H72.6v56.4h8.3
		C99.5,220.1,108.8,210.6,108.8,191.6z"/>
	<path class="st2" d="M201.5,211.2c0,7.8-3,14-8.9,18.5s-14.1,6.8-24.7,6.8c-9.7,0-18.3-1.7-25.8-5.2v-17.1
		c6.2,2.6,11.3,4.4,15.6,5.5c4.3,1.1,8.1,1.6,11.7,1.6c4.2,0,7.5-0.8,9.7-2.3c2.3-1.6,3.4-3.8,3.4-6.9c0-1.7-0.5-3.2-1.5-4.5
		c-1-1.3-2.5-2.6-4.4-3.8c-1.9-1.2-5.9-3.2-11.8-5.9c-5.6-2.5-9.7-4.9-12.5-7.2c-2.8-2.3-5-5-6.7-8c-1.7-3-2.5-6.6-2.5-10.7
		c0-7.7,2.7-13.7,8.2-18.1c5.5-4.4,13-6.6,22.6-6.6c4.7,0,9.2,0.5,13.5,1.6c4.3,1.1,8.8,2.6,13.5,4.5l-6.2,14.3
		c-4.8-1.9-8.9-3.2-12-4c-3.2-0.8-6.3-1.1-9.4-1.1c-3.7,0-6.5,0.8-8.4,2.4c-2,1.6-2.9,3.7-2.9,6.3c0,1.6,0.4,3,1.2,4.2
		s2,2.4,3.8,3.5c1.7,1.1,5.8,3.2,12.2,6.1c8.5,3.9,14.3,7.8,17.5,11.6C199.9,200.8,201.5,205.5,201.5,211.2z"/>
	<path class="st2" d="M213.8,226.8c0-3.3,0.9-5.8,2.8-7.5c1.9-1.7,4.6-2.6,8.2-2.6c3.4,0,6.1,0.9,8,2.6c1.9,1.7,2.8,4.2,2.8,7.5
		c0,3.1-0.9,5.6-2.9,7.4c-1.9,1.8-4.6,2.7-8,2.7c-3.5,0-6.2-0.9-8.1-2.6C214.8,232.4,213.8,229.9,213.8,226.8z"/>
</g>
</svg>
