<svg xmlns="http://www.w3.org/2000/svg" width="24" height="24" viewBox="0 0 24 24" fill="none">
  <title>Artificial Intelligence (AI)</title>
  <g clip-path="url(#clip0_43876_12457)">
    <path d="M19.801 3C20.4637 3 21.001 3.53726 21.001 4.2V19.8C21.001 20.4628 20.4637 21 19.801 21H4.20098C3.53824 21 3.00098 20.4628 3.00098 19.8V4.2C3.00098 3.53726 3.53824 3 4.20098 3H19.801ZM8.94555 8.87988C8.88361 8.87988 8.82803 8.91796 8.80567 8.97573L6.32024 15.3958C6.28219 15.4941 6.35472 15.6 6.46013 15.6H7.19363C7.2559 15.6 7.3117 15.5615 7.33384 15.5033L7.89546 14.0262C7.9176 13.968 7.97339 13.9295 8.03567 13.9295H10.64C10.7023 13.9295 10.7582 13.968 10.7803 14.0263L11.3403 15.5032C11.3624 15.5615 11.4182 15.6 11.4805 15.6H12.2625C12.3678 15.6 12.4403 15.4944 12.4025 15.3962L9.9356 8.97608C9.91333 8.91813 9.85767 8.87988 9.79558 8.87988H8.94555ZM13.6123 8.87988C13.5294 8.87988 13.4623 8.94704 13.4623 9.02988V9.69024C13.4623 9.77308 13.5294 9.84024 13.6123 9.84024H14.3969C14.4797 9.84024 14.5469 9.9074 14.5469 9.99024V14.4902C14.5469 14.5731 14.4797 14.6402 14.3969 14.6402H13.6123C13.5294 14.6402 13.4623 14.7074 13.4623 14.7902V15.45C13.4623 15.5328 13.5294 15.6 13.6123 15.6H16.5186C16.6014 15.6 16.6686 15.5328 16.6686 15.45V14.7902C16.6686 14.7074 16.6014 14.6402 16.5186 14.6402H15.7334C15.6506 14.6402 15.5834 14.5731 15.5834 14.4902V9.99024C15.5834 9.9074 15.6506 9.84024 15.7334 9.84024H16.5186C16.6014 9.84024 16.6686 9.77308 16.6686 9.69024V9.02988C16.6686 8.94704 16.6014 8.87988 16.5186 8.87988H13.6123ZM9.35138 10.0705C9.40898 10.2433 9.47318 10.4353 9.54356 10.6465C9.61394 10.8577 9.6746 11.0497 9.72578 11.2225C9.78338 11.3952 9.82202 11.504 9.84122 11.5488L10.288 12.7279C10.3252 12.8261 10.2527 12.9311 10.1478 12.9311H8.52949C8.42445 12.9311 8.35194 12.8259 8.3893 12.7277L8.82344 11.5869C8.86182 11.4782 8.91003 11.3437 8.96758 11.1838C9.02516 11.0174 9.08288 10.8413 9.14042 10.6559C9.20438 10.4704 9.2615 10.2943 9.31268 10.1279C9.31947 10.1084 9.32604 10.0892 9.3325 10.0705C9.33554 10.0616 9.34853 10.0616 9.35138 10.0705Z" />
  </g>
  <defs>
    <clipPath id="clip0_43876_12457">
      <rect width="18" height="18" fill="white" transform="translate(3.00098 3)"/>
    </clipPath>
  </defs>
</svg>