<svg width="128" height="128" viewBox="0 0 128 128" fill="none" xmlns="http://www.w3.org/2000/svg">
<path d="M64 16C65.3091 16 66.3979 16.9433 66.6237 18.1873L66.6667 18.6667V59.856L106.57 84.7946C107.818 85.5752 108.198 87.2204 107.418 88.4693C106.724 89.5794 105.347 90.0027 104.172 89.5349L103.743 89.3173L63.9947 64.4693L23.9111 89.3069C22.6591 90.0825 21.0155 89.6964 20.2398 88.4444C19.5504 87.3316 19.7789 85.9092 20.7174 85.0621L21.1023 84.7731L61.3334 59.84V18.6667C61.3334 17.1939 62.5273 16 64 16Z" fill="#8D9DBC"/>
<path fill-rule="evenodd" clip-rule="evenodd" d="M61.1734 11.9552L21.1734 36.9552C19.614 37.9298 18.6667 39.639 18.6667 41.4779V86.5219C18.6667 88.3608 19.614 90.0699 21.1734 91.0445L61.1734 116.045C62.9028 117.125 65.0972 117.125 66.8267 116.045L106.827 91.0445C108.386 90.0699 109.333 88.3608 109.333 86.5219V41.4779C109.333 39.639 108.386 37.9298 106.827 36.9552L66.8267 11.9552C65.0972 10.8743 62.9028 10.8743 61.1734 11.9552ZM30.6315 37.3332L64 16.4779L97.3686 37.3332H30.6315ZM24 50.0414V86.5219L56.4271 106.789L24 50.0414ZM71.5729 106.789L104 86.5219V50.0414L71.5729 106.789ZM102.069 42.6665L64 109.285L25.9254 42.6665H102.069Z" fill="#1B3C79"/>
</svg>
